<?xml version="1.0" encoding="iso-8859-1"?>
<!-- Generator: Adobe Illustrator 19.0.0, SVG Export Plug-In . SVG Version: 6.00 Build 0)  -->
<svg version="1.1" id="Capa_1" xmlns="http://www.w3.org/2000/svg" xmlns:xlink="http://www.w3.org/1999/xlink" x="0px" y="0px"
	 viewBox="0 0 512.001 512.001" style="enable-background:new 0 0 512.001 512.001;fill: white;stroke:white;" xml:space="preserve">
<g>
	<g>
		<path d="M475.68,112.897l-216-112c-2.308-1.195-5.052-1.195-7.36,0l-216,112c-2.654,1.375-4.32,4.115-4.32,7.104v384
			c0,4.418,3.582,8,8,8h432c4.418,0,8-3.582,8-8v-384C480.001,117.012,478.334,114.272,475.68,112.897z M312,488.001h-72v-72h8v24
			c0,4.418,3.582,8,8,8h40c4.418,0,8-3.582,8-8v-24h8V488.001z M264,432.001v-16h24v16H264z M400,488.001h-72v-72h8v24
			c0,4.418,3.582,8,8,8h40c4.418,0,8-3.582,8-8v-24h8V488.001z M352,432.001v-16h24v16H352z M400,400.001h-72v-72h8v24
			c0,4.418,3.582,8,8,8h40c4.418,0,8-3.582,8-8v-24h8V400.001z M352,344.001v-16h24v16H352z M408,312.001h-88c-4.418,0-8,3.582-8,8
			v80h-80c-4.418,0-8,3.582-8,8v88H104v-264h304V312.001z M416,216.001H96v-16h320V216.001z M464,496.001h-40v-264
			c4.418,0,8-3.582,8-8v-32c0-4.418-3.582-8-8-8H88c-4.418,0-8,3.582-8,8v32c0,4.418,3.582,8,8,8v264H48V124.865L256,17.009
			l208,107.856V496.001z"/>
	</g>
</g>
<g>
	<g>
		<path d="M312,80.001H200c-4.418,0-8,3.582-8,8s3.582,8,8,8h112c4.418,0,8-3.582,8-8S316.419,80.001,312,80.001z"/>
	</g>
</g>
<g>
	<g>
		<path d="M312,112.001H200c-4.418,0-8,3.582-8,8s3.582,8,8,8h112c4.418,0,8-3.582,8-8S316.419,112.001,312,112.001z"/>
	</g>
</g>
<g>
	<g>
		<path d="M312,144.001H200c-4.418,0-8,3.582-8,8s3.582,8,8,8h112c4.418,0,8-3.582,8-8S316.419,144.001,312,144.001z"/>
	</g>
</g>
<g>
</g>
<g>
</g>
<g>
</g>
<g>
</g>
<g>
</g>
<g>
</g>
<g>
</g>
<g>
</g>
<g>
</g>
<g>
</g>
<g>
</g>
<g>
</g>
<g>
</g>
<g>
</g>
<g>
</g>
</svg>
