<?xml version="1.0" encoding="UTF-8" standalone="no"?>
<!-- Created with Inkscape (http://www.inkscape.org/) -->

<svg
   xmlns:dc="http://purl.org/dc/elements/1.1/"
   xmlns:cc="http://creativecommons.org/ns#"
   xmlns:rdf="http://www.w3.org/1999/02/22-rdf-syntax-ns#"
   xmlns:svg="http://www.w3.org/2000/svg"
   xmlns="http://www.w3.org/2000/svg"
   xmlns:sodipodi="http://sodipodi.sourceforge.net/DTD/sodipodi-0.dtd"
   xmlns:inkscape="http://www.inkscape.org/namespaces/inkscape"
   id="svg3004"
   version="1.1"
   inkscape:version="0.48.5 r10040"
   width="817.1375"
   height="180.9625"
   xml:space="preserve"
   sodipodi:docname="logo_netia_media_soft_normal.eps"><metadata
     id="metadata3010"><rdf:RDF><cc:Work
         rdf:about=""><dc:format>image/svg+xml</dc:format><dc:type
           rdf:resource="http://purl.org/dc/dcmitype/StillImage" /><dc:title></dc:title></cc:Work></rdf:RDF></metadata><defs
     id="defs3008"><clipPath
       clipPathUnits="userSpaceOnUse"
       id="clipPath3020"><path
         d="m 0,0 6537,0 0,1447.71 -6537,0 L 0,0 z"
         id="path3022" /></clipPath></defs><sodipodi:namedview
     pagecolor="#ffffff"
     bordercolor="#666666"
     borderopacity="1"
     objecttolerance="10"
     gridtolerance="10"
     guidetolerance="10"
     inkscape:pageopacity="0"
     inkscape:pageshadow="2"
     inkscape:window-width="1246"
     inkscape:window-height="1060"
     id="namedview3006"
     showgrid="false"
     inkscape:zoom="1.3339248"
     inkscape:cx="408.56876"
     inkscape:cy="90.481247"
     inkscape:window-x="1600"
     inkscape:window-y="18"
     inkscape:window-maximized="0"
     inkscape:current-layer="g3012" /><g
     id="g3012"
     inkscape:groupmode="layer"
     inkscape:label="ink_ext_XXXXXX"
     transform="matrix(1.25,0,0,-1.25,0,180.9625)"><g
       id="g3014"
       transform="scale(0.1,0.1)"><g
         id="g3016"><g
           id="g3018"
           clip-path="url(#clipPath3020)"><path
             d="m 4987.7,896.832 c -2.21,48.016 -4.98,105.968 -4.42,156.188 l -1.66,0 c -12.14,-45.25 -27.59,-95.477 -44.15,-142.391 l -54.08,-161.16 -52.43,0 -49.68,158.953 c -14.35,47.473 -27.6,98.238 -37.53,144.598 l -1.1,0 c -1.65,-48.56 -3.87,-107.614 -6.62,-158.395 l -8.29,-149.57 -63.46,0 24.83,371.995 89.42,0 48.56,-149.573 c 13.24,-43.594 24.83,-87.754 34.22,-129.141 l 1.65,0 c 9.94,40.293 22.64,86.094 36.98,129.695 l 51.33,149.019 88.3,0 21.53,-371.995 -66.23,0 -7.17,151.777"
             style="fill:#565353;fill-opacity:1;fill-rule:nonzero;stroke:none"
             id="path3024" /><path
             d="m 5408.29,910.074 -140.18,0 0,-109.277 156.73,0 0,-55.742 -224.62,0 0,371.995 216.35,0 0,-55.75 -148.46,0 0,-96.03 140.18,0 0,-55.196"
             style="fill:#565353;fill-opacity:1;fill-rule:nonzero;stroke:none"
             id="path3026" /><path
             d="m 5622.46,796.938 c 9.39,-1.649 23.73,-1.649 37.53,-1.649 88.31,-0.559 140.74,48.008 140.74,142.383 0.55,82.238 -46.91,129.148 -131.91,129.148 -21.53,0 -36.97,-1.65 -46.36,-3.86 l 0,-266.022 z m -67.88,315.142 c 29.8,4.97 67.88,7.72 108.17,7.72 69.54,0 117.55,-14.35 151.77,-43.04 35.88,-29.26 57.96,-73.4 57.96,-136.881 0,-66.231 -22.64,-115.899 -57.96,-147.91 -36.97,-33.664 -96.02,-50.774 -168.33,-50.774 -39.73,0 -69.54,2.207 -91.61,4.973 l 0,365.912"
             style="fill:#565353;fill-opacity:1;fill-rule:nonzero;stroke:none"
             id="path3028" /><path
             d="m 6001.66,745.055 67.8789,0 0,371.992 -67.8789,0 0,-371.992 z"
             style="fill:#565353;fill-opacity:1;fill-rule:nonzero;stroke:none"
             id="path3030" /><path
             d="m 6399.05,901.801 -29.26,91.617 c -7.16,22.632 -13.24,48.022 -18.75,69.542 l -1.11,0 c -5.52,-21.52 -11.03,-47.47 -17.66,-69.542 l -28.7,-91.617 95.48,0 z m -106.52,-51.328 -32.01,-105.418 -70.09,0 119.21,371.995 86.65,0 120.87,-371.995 -72.85,0 -33.67,105.418 -118.11,0"
             style="fill:#565353;fill-opacity:1;fill-rule:nonzero;stroke:none"
             id="path3032" /><path
             d="m 4664.28,329.711 c 12.7,-7.82 31.76,-16.121 52.76,-16.121 37.14,0 54.73,20.031 54.73,44.461 0,25.89 -15.64,39.578 -49.35,53.25 -38.6,14.66 -59.61,35.668 -59.61,64.008 0,33.711 26.38,63.515 72.31,63.515 21.5,0 39.58,-6.347 51.79,-14.648 l -9.28,-19.063 c -7.82,5.86 -22.96,14.168 -46.42,14.168 -29.8,0 -45.44,-19.051 -45.44,-40.554 0,-24.426 16.61,-35.176 48.37,-48.356 38.12,-14.672 60.59,-33.723 60.59,-69.391 0,-40.07 -31.27,-66.941 -79.15,-66.941 -22.96,0 -43.98,6.359 -59.61,16.133 l 8.31,19.539"
             style="fill:#565353;fill-opacity:1;fill-rule:nonzero;stroke:none"
             id="path3034" /><path
             d="m 4894.89,415.699 c 0,-58.629 37.62,-102.597 85.5,-102.597 48.86,0 87.46,43.968 87.46,104.058 0,43.012 -24.43,102.61 -85.99,102.61 -59.6,0 -86.97,-53.739 -86.97,-104.071 z m 196.41,2.93 c 0,-87.938 -60.1,-125.078 -112.37,-125.078 -60.59,0 -107.49,47.398 -107.49,120.679 0,80.629 52.77,124.594 110.9,124.594 64.99,0 108.96,-48.371 108.96,-120.195"
             style="fill:#565353;fill-opacity:1;fill-rule:nonzero;stroke:none"
             id="path3036" /><path
             d="m 5186.6,298.93 0,215.957 -33.72,0 0,18.566 33.72,0 0,12.703 c 0,36.153 6.84,65.469 25.89,84.524 14.17,14.168 33.71,20.527 51.8,20.527 15.14,0 28.33,-3.906 35.17,-7.824 l -7.33,-18.563 c -6.35,3.418 -15.64,6.836 -29.81,6.836 -43.47,0 -52.76,-40.058 -52.76,-85.011 l 0,-13.192 63.03,0 0,-18.566 -63.03,0 0,-215.957 -22.96,0"
             style="fill:#565353;fill-opacity:1;fill-rule:nonzero;stroke:none"
             id="path3038" /><path
             d="m 5384.48,601.363 0,-67.91 66.94,0 0,-18.566 -66.94,0 0,-152.438 c 0,-29.808 9.28,-48.859 34.2,-48.859 12.22,0 21.01,1.949 26.88,3.91 l 2.93,-18.078 c -7.83,-2.934 -18.58,-5.383 -32.74,-5.383 -17.11,0 -31.27,5.383 -40.07,16.621 -10.75,12.211 -14.65,31.762 -14.65,55.699 l 0,148.528 -39.57,0 0,18.566 39.57,0 0,60.586 23.45,7.324"
             style="fill:#565353;fill-opacity:1;fill-rule:nonzero;stroke:none"
             id="path3040" /><path
             d="m 5538.39,533.453 39.09,-133.383 c 8.3,-27.359 15.15,-50.82 20.03,-73.289 l 1.46,0 c 5.86,21.5 13.69,46.418 23.46,73.289 l 46.91,133.383 21.98,0 44.95,-132.402 c 9.29,-28.34 16.61,-52.289 22.96,-74.27 l 0.98,0 c 4.89,21.981 12.21,45.438 21.01,73.778 l 42.01,132.894 23.95,0 -78.18,-234.523 -20.51,0 -43.98,130.461 c -10.26,28.328 -18.07,53.738 -24.43,80.117 l -0.98,0 c -6.83,-27.852 -15.63,-53.742 -25.4,-80.61 l -46.9,-129.968 -20.53,0 -71.82,234.523 23.94,0"
             style="fill:#565353;fill-opacity:1;fill-rule:nonzero;stroke:none"
             id="path3042" /><path
             d="m 6052.89,424.5 c -51.3,1.461 -118.72,-6.359 -118.72,-62.539 0,-33.711 22.47,-48.859 46.9,-48.859 39.09,0 61.08,23.949 69.38,46.898 1.46,4.891 2.44,9.781 2.44,14.172 l 0,50.328 z m 5.38,-125.57 -3.42,33.711 -1.47,0 c -11.23,-18.071 -37.13,-39.09 -74.75,-39.09 -46.9,0 -68.89,33.23 -68.89,64.5 0,54.23 47.88,86.961 143.15,85.988 l 0,5.859 c 0,23.457 -4.39,69.872 -60.09,69.383 -20.52,0 -42.02,-5.371 -58.63,-17.586 l -7.33,17.098 c 21.01,14.172 47.39,20.031 68.4,20.031 67.91,0 80.62,-50.812 80.62,-92.836 l 0,-91.367 c 0,-18.551 0.98,-37.609 3.42,-55.691 l -21.01,0"
             style="fill:#565353;fill-opacity:1;fill-rule:nonzero;stroke:none"
             id="path3044" /><path
             d="m 6186.78,463.102 c 0,23.445 -0.99,47.871 -1.97,70.351 l 21.51,0 0.97,-47.394 0.98,0 c 10.27,29.316 34.69,52.765 66.94,52.765 2.92,0 6.35,-0.488 9.28,-0.976 l 0,-22.473 c -3.42,0.977 -6.84,0.977 -11.24,0.977 -32.24,0 -55.2,-27.852 -61.56,-65.477 -0.98,-6.836 -1.95,-14.645 -1.95,-22.465 l 0,-129.48 -22.96,0 0,164.172"
             style="fill:#565353;fill-opacity:1;fill-rule:nonzero;stroke:none"
             id="path3046" /><path
             d="m 6512.67,437.199 c 0.48,32.739 -13.2,82.571 -69.87,82.571 -51.78,0 -74.26,-46.415 -78.17,-82.571 l 148.04,0 z m -149.51,-18.57 c 0,-75.238 41.04,-104.551 89.41,-104.551 34.21,0 51.8,6.832 64.99,13.192 l 5.86,-18.559 c -8.8,-4.891 -32.74,-14.672 -73.78,-14.672 -67.42,0 -109.44,48.871 -109.44,117.75 0,78.176 44.95,127.035 105.53,127.035 76.71,0 91.37,-72.304 91.37,-106.015 0,-6.36 0,-10.27 -0.98,-14.18 l -172.96,0"
             style="fill:#565353;fill-opacity:1;fill-rule:nonzero;stroke:none"
             id="path3048" /><path
             d="M 3919.48,361.578 3557.91,723.16 3919.48,1084.72 4281.07,723.16 3919.48,361.578"
             style="fill:#61cac2;fill-opacity:1;fill-rule:nonzero;stroke:none"
             id="path3050" /><path
             d="m 3560.59,724.547 -361.58,361.583 361.58,361.58 361.57,-361.58 -361.57,-361.583"
             style="fill:#b5dc17;fill-opacity:1;fill-rule:nonzero;stroke:none"
             id="path3052" /><path
             d="M 3560.59,0 3199.01,361.578 3560.59,723.141 3922.16,361.578 3560.59,0"
             style="fill:#b5dc17;fill-opacity:1;fill-rule:nonzero;stroke:none"
             id="path3054" /><path
             d="m 0,278.449 0,873.911 19.0078,0 581.6172,-669.903 0,669.903 86.145,0 0,-873.911 -19.606,0 -576.8671,661.742 0,-661.742 -90.2969,0"
             style="fill:#565353;fill-opacity:1;fill-rule:nonzero;stroke:none"
             id="path3056" /><path
             d="m 790.051,1152.36 500.809,0 0,-85.55 -413.481,0 0,-273.884 409.921,0 0,-85.547 -409.921,0 0,-343.379 409.921,0 0,-85.551 -497.249,0 0,873.911"
             style="fill:#565353;fill-opacity:1;fill-rule:nonzero;stroke:none"
             id="path3058" /><path
             d="m 1361.11,1066.81 0,85.55 478.84,0 0,-85.55 -194.86,0 0,-788.361 -89.11,0 0,788.361 -194.87,0"
             style="fill:#565353;fill-opacity:1;fill-rule:nonzero;stroke:none"
             id="path3060" /><path
             d="m 1913.42,278.449 87.3281,0 0,873.91 -87.3281,0 0,-873.91 z"
             style="fill:#565353;fill-opacity:1;fill-rule:nonzero;stroke:none"
             id="path3062" /><path
             d="m 2486.98,966.676 -149.74,-316.328 298.77,0 -149.03,316.328 z m 11.03,185.684 407.55,-873.911 -94.33,0 -137.45,287.543 -376.48,0 -136.14,-287.543 -97.43,0 412.89,873.911 21.39,0"
             style="fill:#565353;fill-opacity:1;fill-rule:nonzero;stroke:none"
             id="path3064" /></g></g></g></g></svg>