<?xml version="1.0" encoding="UTF-8" standalone="no"?>
<!-- Created with Inkscape (http://www.inkscape.org/) -->

<svg
   xmlns:dc="http://purl.org/dc/elements/1.1/"
   xmlns:cc="http://creativecommons.org/ns#"
   xmlns:rdf="http://www.w3.org/1999/02/22-rdf-syntax-ns#"
   xmlns:svg="http://www.w3.org/2000/svg"
   xmlns="http://www.w3.org/2000/svg"
   xmlns:sodipodi="http://sodipodi.sourceforge.net/DTD/sodipodi-0.dtd"
   xmlns:inkscape="http://www.inkscape.org/namespaces/inkscape"
   width="999.99994"
   height="285.37717"
   id="svg3671"
   version="1.1"
   inkscape:version="0.48.5 r10040"
   sodipodi:docname="A.svg">
  <defs
     id="defs3673" />
  <sodipodi:namedview
     id="base"
     pagecolor="#ffffff"
     bordercolor="#666666"
     borderopacity="1.0"
     inkscape:pageopacity="0.0"
     inkscape:pageshadow="2"
     inkscape:zoom="0.57695313"
     inkscape:cx="594.56339"
     inkscape:cy="-72.942123"
     inkscape:document-units="px"
     inkscape:current-layer="layer1"
     showgrid="false"
     fit-margin-left="0.5"
     fit-margin-bottom="0.5"
     fit-margin-top="0.5"
     fit-margin-right="0.5"
     inkscape:window-width="1256"
     inkscape:window-height="1041"
     inkscape:window-x="657"
     inkscape:window-y="-21"
     inkscape:window-maximized="0" />
  <metadata
     id="metadata3676">
    <rdf:RDF>
      <cc:Work
         rdf:about="">
        <dc:format>image/svg+xml</dc:format>
        <dc:type
           rdf:resource="http://purl.org/dc/dcmitype/StillImage" />
        <dc:title></dc:title>
      </cc:Work>
    </rdf:RDF>
  </metadata>
  <g
     inkscape:label="Layer 1"
     inkscape:groupmode="layer"
     id="layer1"
     transform="translate(-276.16993,-93.54799)">
    <g
       id="g4112"
       transform="matrix(11.16825,0,0,-11.16825,423.20854,105.66297)">
      <path
         inkscape:connector-curvature="0"
         d="m 0,0 0,-3.117 -4.807,0 0,-15.07 -3.507,0 0,15.07 -4.807,0 0,3.117"
         style="fill:#f3722a;fill-opacity:1;fill-rule:nonzero;stroke:none"
         id="path4114" />
    </g>
    <g
       id="g4116"
       transform="matrix(11.16825,0,0,-11.16825,750.41594,308.77994)">
      <path
         inkscape:connector-curvature="0"
         d="m 0,0 -3.377,0 0,18.448 3.377,0 0,-6.756 c 0.936,0.727 2.131,1.169 3.43,1.169 1.741,0 3.326,-0.779 4.365,-2.027 0.832,-0.987 1.299,-2.26 1.299,-4.416 l 0,-6.418 -3.378,0 0,6.678 C 5.716,7.924 5.431,8.574 4.963,9.042 4.521,9.484 3.846,9.743 3.067,9.743 1.637,9.743 0.468,8.834 0,8.185"
         style="fill:#f3722a;fill-opacity:1;fill-rule:nonzero;stroke:none"
         id="path4118" />
    </g>
    <g
       id="g4120"
       transform="matrix(11.16825,0,0,-11.16825,984.02224,217.37898)">
      <path
         inkscape:connector-curvature="0"
         d="m 0,0 c -0.701,0.935 -1.819,1.559 -3.118,1.559 -1.975,0 -3.248,-1.637 -3.248,-3.455 0,-1.976 1.429,-3.43 3.326,-3.43 1.273,0 2.391,0.623 3.04,1.558 L 0,0 z m 3.378,-8.185 -3.248,0 0,1.015 c -1.039,-0.885 -2.235,-1.275 -3.508,-1.275 -1.87,0 -3.637,0.832 -4.755,2.132 -0.987,1.143 -1.611,2.701 -1.611,4.417 0,3.714 2.754,6.572 6.184,6.572 1.429,0 2.703,-0.466 3.69,-1.273 l 0,1.014 3.248,0"
         style="fill:#f3722a;fill-opacity:1;fill-rule:nonzero;stroke:none"
         id="path4122" />
    </g>
    <g
       id="g4124"
       transform="matrix(11.16825,0,0,-11.16825,1097.2013,259.44978)">
      <path
         inkscape:connector-curvature="0"
         d="m 0,0 c 0.649,-0.936 1.767,-1.559 3.04,-1.559 1.897,0 3.326,1.455 3.326,3.429 0,1.819 -1.273,3.457 -3.248,3.457 C 1.819,5.327 0.702,4.703 0,3.768 L 0,0 z m -3.378,8.185 3.248,0 0,-1.014 c 0.988,0.806 2.261,1.273 3.69,1.273 3.43,0 6.184,-2.858 6.184,-6.574 0,-1.714 -0.598,-3.273 -1.585,-4.416 -1.117,-1.3 -2.91,-2.131 -4.781,-2.131 -1.273,0 -2.365,0.364 -3.378,1.143 l 0,-7.119 -3.378,0"
         style="fill:#f3722a;fill-opacity:1;fill-rule:nonzero;stroke:none"
         id="path4126" />
    </g>
    <path
       inkscape:connector-curvature="0"
       d="m 1269.8624,308.77994 -37.7151,0 0,-140.74229 37.7151,0 0,140.74229 z M 1250.9993,94.04799 c 13.6476,0 24.6706,10.45348 24.6706,24.08992 0,13.63643 -11.023,24.08991 -24.6706,24.08991 -13.6365,0 -24.6595,-10.45348 -24.6595,-24.08991 0,-13.63644 11.023,-24.08992 24.6595,-24.08992"
       style="fill:#f3722a;fill-opacity:1;fill-rule:nonzero;stroke:none"
       id="path4128" />
    <g
       id="g4130"
       transform="matrix(11.16825,0,0,-11.16825,631.16137,165.07806)">
      <path
         inkscape:connector-curvature="0"
         d="m 0,0 c -0.204,0 -0.41,-0.014 -0.617,-0.041 -3.479,-0.473 -4.275,-0.806 -7.429,-0.814 l -0.116,-0.001 c -3.059,0 -3.872,0.326 -7.306,0.774 -0.199,0.026 -0.396,0.039 -0.592,0.039 -2.513,0 -4.76,-2.074 -5.202,-4.819 -0.476,-2.96 1.46,-5.909 4.067,-6.893 1.437,-0.543 5.158,-1.396 9.001,-1.396 l 0.119,0 c 3.885,0.019 7.675,0.888 9.129,1.444 2.612,0.998 4.561,3.958 4.099,6.915 C 4.727,-2.058 2.503,0 0,0 m 0,-3.238 c 0.9,0 1.777,-0.921 1.954,-2.054 0.226,-1.448 -0.902,-2.949 -2.056,-3.39 -0.99,-0.379 -4.375,-1.214 -7.988,-1.231 l -0.104,0 c -3.526,0 -6.872,0.816 -7.857,1.187 -1.162,0.439 -2.249,1.889 -2.014,3.35 0.186,1.155 1.085,2.095 2.005,2.095 l 0.173,-0.012 c 0.979,-0.127 1.74,-0.245 2.411,-0.349 1.69,-0.262 2.912,-0.452 5.314,-0.452 l 0.124,0 c 2.486,0.007 3.727,0.205 5.445,0.481 0.672,0.108 1.433,0.23 2.412,0.363 L 0,-3.238"
         style="fill:#f3722a;fill-opacity:1;fill-rule:nonzero;stroke:none"
         id="path4132" />
    </g>
  </g>
</svg>
