<?xml version="1.0" encoding="UTF-8" standalone="no"?>
<!-- Created with Inkscape (http://www.inkscape.org/) -->

<svg
   xmlns:dc="http://purl.org/dc/elements/1.1/"
   xmlns:cc="http://creativecommons.org/ns#"
   xmlns:rdf="http://www.w3.org/1999/02/22-rdf-syntax-ns#"
   xmlns:svg="http://www.w3.org/2000/svg"
   xmlns="http://www.w3.org/2000/svg"
   xmlns:sodipodi="http://sodipodi.sourceforge.net/DTD/sodipodi-0.dtd"
   xmlns:inkscape="http://www.inkscape.org/namespaces/inkscape"
   width="248"
   height="96"
   id="svg2"
   version="1.1"
   inkscape:version="0.48.5 r10040"
   sodipodi:docname="casita.svg">
  <defs
     id="defs4" />
  <sodipodi:namedview
     id="base"
     pagecolor="#ffffff"
     bordercolor="#666666"
     borderopacity="1.0"
     inkscape:pageopacity="0.0"
     inkscape:pageshadow="2"
     inkscape:zoom="1.4"
     inkscape:cx="402.26131"
     inkscape:cy="-3.2612377"
     inkscape:document-units="px"
     inkscape:current-layer="layer1"
     showgrid="false"
     inkscape:window-width="1918"
     inkscape:window-height="1060"
     inkscape:window-x="1600"
     inkscape:window-y="18"
     inkscape:window-maximized="0" />
  <metadata
     id="metadata7">
    <rdf:RDF>
      <cc:Work
         rdf:about="">
        <dc:format>image/svg+xml</dc:format>
        <dc:type
           rdf:resource="http://purl.org/dc/dcmitype/StillImage" />
        <dc:title></dc:title>
      </cc:Work>
    </rdf:RDF>
  </metadata>
  <g
     inkscape:label="Calque 1"
     inkscape:groupmode="layer"
     id="layer1"
     transform="translate(0,-956.3622)">
    <flowRoot
       xml:space="preserve"
       id="flowRoot2991"
       style="font-size:18px;font-style:normal;font-weight:normal;line-height:125%;letter-spacing:0px;word-spacing:0px;fill:#fcac45;fill-opacity:1;stroke:none;font-family:Sans"><flowRegion
         id="flowRegion2993"><rect
           id="rect2995"
           width="184.85791"
           height="75.761444"
           x="127.27922"
           y="379.60059" /></flowRegion><flowPara
         id="flowPara2997"></flowPara></flowRoot>    <flowRoot
       xml:space="preserve"
       id="flowRoot3018"
       style="font-size:18px;font-style:normal;font-weight:normal;line-height:125%;letter-spacing:0px;word-spacing:0px;fill:#fcac45;fill-opacity:1;stroke:none;font-family:Sans"><flowRegion
         id="flowRegion3020"><rect
           id="rect3022"
           width="355.5737"
           height="169.70563"
           x="162.63457"
           y="362.42801" /></flowRegion><flowPara
         id="flowPara3024"></flowPara></flowRoot>    <path
       d="m 19.483684,996.03173 c 3.743446,0.0644 3.743459,0.0644 4.167254,0.0644 3.672814,0 10.029652,-0.1298 12.148582,-0.2596 l 5.22671,-2.4665 c -2.61336,-0.0655 -3.24905,-0.0655 -9.32333,-0.19476 7.98133,-7.33457 8.40512,-7.91871 10.66534,-16.16198 0.0706,-0.0655 0.14125,-0.0655 0.14125,-0.0655 0.77695,-0.0644 1.20074,0.51931 1.62452,2.14196 2.68399,10.83958 5.01482,17.00585 7.91071,20.96515 3.03713,4.1541 7.2044,6.1664 12.78427,6.1664 3.95533,0 6.35682,-0.7789 10.31217,-3.4403 l -3.46093,-3.95927 c -2.2602,3.82947 -4.23789,5.32247 -6.9925,5.32247 -3.31968,0 -6.49808,-3.2454 -9.39397,-9.67125 -1.83641,-4.02432 -4.02598,-10.06079 -6.92187,-18.4987 4.02598,-1.16841 5.6505,-1.88236 7.84008,-3.18057 3.31967,-2.077 5.22672,-5.0627 5.22672,-8.17831 0,-4.02432 -3.53158,-6.23112 -9.95902,-6.23112 -0.84758,0 -2.61335,0.0644 -4.09661,0.1298 l 0.56504,-2.07711 -6.42744,2.79106 c -11.583527,1.8174 -17.728461,6.75042 -17.728461,14.34458 0,1.68761 0.211883,2.79107 0.988837,5.19262 l 5.933024,-2.79095 c -0.56504,-2.20691 -0.77694,-3.31037 -0.77694,-4.80322 0,-3.11561 1.05947,-5.58201 3.24905,-7.46436 1.97767,-1.62265 3.95534,-2.33671 8.47574,-2.85591 l -0.63568,2.3366 c -0.28253,1.03861 -0.70631,2.53146 -1.20072,4.54362 l -3.53156,12.85173 c -2.96652,10.96938 -4.87359,12.65698 -14.055644,12.59203 l -2.754622,2.85601 m 27.404956,-35.69929 2.18957,0 c 4.37913,0 6.21555,1.49285 6.21555,5.06281 0,3.24541 -1.90706,6.36091 -4.87355,8.04852 -2.11895,1.16841 -3.81411,1.62276 -7.6282,2.07711 l 4.09663,-15.18844"
       style="font-size:64px;font-style:normal;font-variant:normal;font-weight:bold;font-stretch:normal;line-height:125%;letter-spacing:0px;word-spacing:0px;fill:#fcac45;fill-opacity:1;stroke:none;font-family:URW Chancery L;-inkscape-font-specification:URW Chancery L Bold Italic"
       id="path3108"
       inkscape:connector-curvature="0" />
    <path
       d="m 76.63819,983.6727 c -3.86969,3.7348 -6.34628,5.3436 -8.30692,5.3436 -1.2899,0 -2.37341,-0.9768 -2.73458,-2.4707 -0.20638,-0.9193 -0.25798,-1.5513 -0.25798,-3.2176 2.3218,-1.6088 3.86968,-2.8154 6.91384,-5.3436 2.78616,-2.3557 3.86968,-4.2518 3.86968,-6.8374 0,-2.011 -1.13511,-3.2176 -2.94096,-3.2176 -1.13511,0 -1.96064,0.2872 -3.14734,1.0342 -1.96064,1.2641 -3.7149,2.8154 -4.79841,4.1944 -1.96064,2.643 -3.7149,8.9634 -3.7149,13.6174 0,3.39 1.59947,5.516 4.23086,5.516 3.04414,0 6.81064,-2.4133 10.88671,-6.9524 l 0,-1.6663 M 65.4935,981.2595 c 0.87713,-6.1479 3.25053,-10.9169 5.46915,-10.9169 0.87713,0 1.44468,0.9768 1.44468,2.3557 0,2.8729 -1.39309,4.5966 -6.91383,8.5612"
       style="font-size:64px;font-style:normal;font-variant:normal;font-weight:bold;font-stretch:normal;line-height:125%;letter-spacing:0px;word-spacing:0px;fill:#fcac45;fill-opacity:1;stroke:none;font-family:URW Chancery L;-inkscape-font-specification:URW Chancery L Bold Italic"
       id="path3110"
       inkscape:connector-curvature="0" />
    <path
       d="m 76.78491,986.7754 c -0.0516,0.5172 -0.10319,0.9768 -0.10319,1.3216 0,2.4706 1.54787,4.1944 3.81809,4.1944 1.59947,0 3.81809,-0.747 5.46915,-1.7812 3.04415,-1.9536 4.9016,-4.8839 4.9016,-7.7568 0,-2.1259 -0.36118,-2.5856 -3.25053,-4.5966 -1.75426,-1.2641 -2.4766,-2.3558 -2.4766,-3.8497 0,-1.9535 1.49628,-3.6772 3.25053,-3.6772 1.18671,0 2.06384,0.632 3.19894,2.2408 1.75426,-1.8961 1.75426,-1.8961 2.425,-2.9878 -1.03191,-1.379 -2.01223,-1.9535 -3.45691,-1.9535 -3.7665,0 -8.6165,4.9988 -8.6165,8.791 0,1.7811 0.82553,3.1601 2.78617,4.7115 2.57978,2.011 2.94096,2.5281 2.94096,3.9646 0,2.0684 -2.3734,4.4816 -4.38564,4.4816 -1.13511,0 -2.01223,-0.6894 -2.52819,-1.9535 -0.36117,-0.8619 -0.46436,-1.7237 -0.51596,-3.6773 -0.56755,0.4597 -0.98032,0.747 -1.1867,0.9193 -0.41277,0.2873 -0.87713,0.5746 -1.34149,0.9193 l -0.92873,0.6895"
       style="font-size:64px;font-style:normal;font-variant:normal;font-weight:bold;font-stretch:normal;line-height:125%;letter-spacing:0px;word-spacing:0px;fill:#fcac45;fill-opacity:1;stroke:none;font-family:URW Chancery L;-inkscape-font-specification:URW Chancery L Bold Italic"
       id="path3112"
       inkscape:connector-curvature="0" />
    <path
       d="m 109.82234,984.3048 c -3.92128,2.5855 -5.57235,3.5623 -6.29469,3.5623 -0.67074,0 -1.49628,-1.4939 -1.49628,-2.7005 0,-0.8044 0.87713,-5.2286 2.21862,-11.2617 0.72234,-0.057 1.2383,-0.057 1.49628,-0.057 l 2.06383,-0.058 c 0.20639,0 0.72234,-0.057 1.54788,-0.1723 l 1.96064,-1.6663 -6.60426,0 2.06383,-9.3081 c -0.98032,0.5745 -1.39309,0.7469 -2.16703,1.1491 -0.36117,0.2298 -0.77393,0.4022 -1.1867,0.632 -0.20638,0.115 -0.46436,0.2299 -0.72234,0.3448 l -1.44468,7.1822 c -0.46436,0.057 -0.77394,0.057 -0.92873,0.057 l -1.23829,0 c -0.1032,0 -0.36118,0 -0.77394,0.058 -0.56756,0.4022 -0.61915,0.4022 -1.49628,1.2066 -0.15479,0.1149 -0.41277,0.3448 -0.77394,0.632 l 1.2383,0 2.37341,0 1.13511,0 c -2.73458,12.7556 -2.73458,12.7556 -2.73458,14.5368 0,1.8387 1.08351,3.8497 2.06383,3.8497 1.13511,0 4.64362,-2.4133 9.59682,-6.5502 l 0.10319,-1.4364"
       style="font-size:64px;font-style:normal;font-variant:normal;font-weight:bold;font-stretch:normal;line-height:125%;letter-spacing:0px;word-spacing:0px;fill:#fcac45;fill-opacity:1;stroke:none;font-family:URW Chancery L;-inkscape-font-specification:URW Chancery L Bold Italic"
       id="path3114"
       inkscape:connector-curvature="0" />
    <path
       d="m 133.00497,984.0749 c -3.86968,2.8729 -4.64362,3.39 -5.15958,3.39 -0.36117,0 -0.61914,-0.4596 -0.61914,-1.1491 0,-1.4939 1.23829,-7.8143 3.09574,-15.4561 0.56756,-0.8619 0.67075,-1.0342 1.49628,-2.0685 -2.4766,-0.632 -4.28246,-0.8618 -6.50107,-0.8618 -2.11543,0 -3.09575,0.2298 -4.43724,1.1491 -1.85745,1.2066 -4.02447,2.9878 -4.69522,3.7922 -1.90904,2.4132 -4.07606,10.17 -4.07606,14.8241 0,2.7579 0.82553,4.5966 2.11542,4.5966 1.13511,0 2.83778,-1.1492 9.28724,-6.3204 -0.51595,2.6431 -0.77393,4.4243 -0.77393,5.1138 0,0.7469 0.30957,1.2066 0.82553,1.2066 0.61915,0 0.61915,0 4.74682,-2.9304 1.49627,-1.0917 2.68298,-2.011 4.64362,-3.6198 l 0.0516,-1.6663 m -10.06118,0.3448 c -3.04415,2.4707 -4.59202,3.4474 -5.52075,3.4474 -0.82553,0 -1.34149,-1.0342 -1.34149,-2.8728 0,-2.8729 0.82553,-6.78 2.11543,-10.0551 1.2383,-3.1602 2.3734,-4.3668 4.12766,-4.3668 0.92873,0 2.52819,0.2873 4.38565,0.747 -1.03192,4.3667 -1.39309,5.6883 -1.44469,5.9755 -0.30957,1.4365 -0.56755,2.8729 -0.87713,4.3668 -0.0516,0.2873 -0.20638,0.9768 -0.46436,2.011 l -0.98032,0.747"
       style="font-size:64px;font-style:normal;font-variant:normal;font-weight:bold;font-stretch:normal;line-height:125%;letter-spacing:0px;word-spacing:0px;fill:#fcac45;fill-opacity:1;stroke:none;font-family:URW Chancery L;-inkscape-font-specification:URW Chancery L Bold Italic"
       id="path3116"
       inkscape:connector-curvature="0" />
    <path
       d="m 133.5169,974.3071 c 2.16702,-1.2066 3.14734,-1.6662 3.76649,-1.6662 0.41277,0 0.72234,0.4596 0.72234,1.0917 0,0.7469 -0.51595,3.2176 -1.44468,7.1247 -1.28989,5.3436 -1.59947,6.9524 -1.59947,8.6186 0,1.6089 0.61915,2.8155 1.44468,2.8155 0.77394,0 1.70266,-0.5172 4.28245,-2.4133 l 5.31437,-3.8496 c -0.41277,1.8386 -0.72234,3.9071 -0.72234,4.9413 0,0.747 0.41277,1.3216 0.92872,1.3216 1.03192,0 5.93352,-3.2177 9.44203,-6.148 l 0.36117,-1.7237 c -4.02447,2.643 -5.36596,3.4474 -5.93351,3.4474 -0.36117,0 -0.56756,-0.4596 -0.56756,-1.3789 0,-2.9304 1.90905,-11.4916 4.12767,-18.7887 -0.67075,0.4022 -1.13511,0.6895 -1.34149,0.8044 -0.61915,0.3448 -1.2383,0.6895 -1.90905,1.0343 -0.15479,0.057 -0.46436,0.2298 -1.03191,0.5745 -0.30958,1.3216 -1.34149,5.9182 -3.04416,13.8473 -3.97287,3.0453 -5.77872,4.1944 -6.39787,4.1944 -0.56756,0 -0.98032,-0.8044 -0.98032,-1.8961 0,-1.3215 0.41276,-3.6198 1.28989,-7.2971 0.56756,-2.2983 0.92873,-3.9071 1.08351,-4.7115 0.46437,-2.1259 0.82554,-3.6198 0.92873,-4.022 0.15478,-0.6321 0.25798,-1.1492 0.25798,-1.5514 0,-0.4597 -0.25798,-0.7469 -0.61915,-0.7469 -0.51596,0 -4.28246,2.2408 -7.99735,4.8264 l -0.36117,1.5513"
       style="font-size:64px;font-style:normal;font-variant:normal;font-weight:bold;font-stretch:normal;line-height:125%;letter-spacing:0px;word-spacing:0px;fill:#fcac45;fill-opacity:1;stroke:none;font-family:URW Chancery L;-inkscape-font-specification:URW Chancery L Bold Italic"
       id="path3118"
       inkscape:connector-curvature="0" />
    <path
       d="m 157.7121,992.119 3.97287,-1.6663 3.86969,-16.3754 c 1.75425,-1.4364 2.94096,-2.011 4.33404,-2.011 1.13511,0 1.80586,0.4597 2.73458,1.7812 l 1.54787,-5.4585 c -0.98032,-0.3447 -1.39308,-0.4596 -1.90904,-0.4596 -0.92873,0 -2.01224,0.5171 -3.40532,1.6088 l -3.04415,2.4706 c 0.0516,-0.4596 0.15478,-0.7469 0.15478,-0.9193 0.41277,-1.8961 0.46437,-2.2408 0.46437,-2.5281 0,-0.3448 -0.30958,-0.632 -0.67075,-0.632 -0.67074,0 -5.21118,2.4706 -8.35852,4.5966 l -0.15478,1.5513 c 2.78616,-1.6088 3.09574,-1.7237 3.71489,-1.7237 0.67075,0 0.98032,0.4022 0.98032,1.2066 0,0.8044 -0.51596,3.5049 -1.1351,5.9756 l -3.09575,12.5832"
       style="font-size:64px;font-style:normal;font-variant:normal;font-weight:bold;font-stretch:normal;line-height:125%;letter-spacing:0px;word-spacing:0px;fill:#fcac45;fill-opacity:1;stroke:none;font-family:URW Chancery L;-inkscape-font-specification:URW Chancery L Bold Italic"
       id="path3120"
       inkscape:connector-curvature="0" />
    <path
       d="m 193.97265,984.0749 c -3.86969,2.8729 -4.64362,3.39 -5.15958,3.39 -0.36117,0 -0.61915,-0.4596 -0.61915,-1.1491 0,-1.4939 1.2383,-7.8143 3.09575,-15.4561 0.56755,-0.8619 0.67074,-1.0342 1.49627,-2.0685 -2.47659,-0.632 -4.28245,-0.8618 -6.50106,-0.8618 -2.11543,0 -3.09575,0.2298 -4.43724,1.1491 -1.85745,1.2066 -4.02447,2.9878 -4.69522,3.7922 -1.90904,2.4132 -4.07607,10.17 -4.07607,14.8241 0,2.7579 0.82554,4.5966 2.11543,4.5966 1.13511,0 2.83778,-1.1492 9.28724,-6.3204 -0.51595,2.6431 -0.77393,4.4243 -0.77393,5.1138 0,0.7469 0.30957,1.2066 0.82553,1.2066 0.61915,0 0.61915,0 4.74681,-2.9304 1.49628,-1.0917 2.68298,-2.011 4.64362,-3.6198 l 0.0516,-1.6663 m -10.06118,0.3448 c -3.04415,2.4707 -4.59203,3.4474 -5.52075,3.4474 -0.82553,0 -1.34149,-1.0342 -1.34149,-2.8728 0,-2.8729 0.82553,-6.78 2.11543,-10.0551 1.2383,-3.1602 2.3734,-4.3668 4.12766,-4.3668 0.92872,0 2.52819,0.2873 4.38564,0.747 -1.03191,4.3667 -1.39308,5.6883 -1.44468,5.9755 -0.30957,1.4365 -0.56755,2.8729 -0.87713,4.3668 -0.0516,0.2873 -0.20638,0.9768 -0.46436,2.011 l -0.98032,0.747"
       style="font-size:64px;font-style:normal;font-variant:normal;font-weight:bold;font-stretch:normal;line-height:125%;letter-spacing:0px;word-spacing:0px;fill:#fcac45;fill-opacity:1;stroke:none;font-family:URW Chancery L;-inkscape-font-specification:URW Chancery L Bold Italic"
       id="path3122"
       inkscape:connector-curvature="0" />
    <path
       d="m 198.71543,990.4527 3.04415,-13.5025 c 6.44946,-4.5392 6.60426,-4.5966 7.3266,-4.5966 0.36117,0 0.56755,0.2873 0.56755,0.7469 0,0.8619 -0.41276,3.0453 -1.90904,9.5955 -1.13511,5.1137 -1.34149,6.0905 -1.34149,7.1821 0,0.8045 0.20638,1.5514 0.77394,2.5856 2.3734,-1.2066 5.93351,-3.6773 9.54522,-6.665 l 0.36117,-1.6089 c -5.15958,3.2751 -5.36596,3.39 -5.88192,3.39 -0.51596,0 -0.82553,-0.632 -0.82553,-1.5513 0,-1.2066 0.36117,-3.1027 1.34149,-7.0673 2.42499,-9.6529 2.425,-9.6529 2.425,-10.0551 0,-0.632 -0.36117,-0.9767 -1.03192,-0.9767 -0.77393,0 -1.90904,0.5171 -3.76649,1.8386 l -7.06862,4.8839 c 0.46436,-1.8961 1.2383,-5.5159 1.2383,-5.9756 0,-0.4022 -0.30958,-0.7469 -0.67075,-0.7469 -0.56755,0 -4.28246,2.1259 -8.10054,4.654 l -0.30957,1.4939 c 3.30212,-1.6663 3.50851,-1.7237 3.97287,-1.7237 0.36117,0 0.61915,0.3447 0.61915,0.8044 0,1.2066 -0.98032,5.9756 -2.27021,11.2042 l -1.1867,4.6541 c -0.1032,0.4022 -0.36117,1.4939 -0.72235,3.1027 l 3.86969,-1.6663"
       style="font-size:64px;font-style:normal;font-variant:normal;font-weight:bold;font-stretch:normal;line-height:125%;letter-spacing:0px;word-spacing:0px;fill:#fcac45;fill-opacity:1;stroke:none;font-family:URW Chancery L;-inkscape-font-specification:URW Chancery L Bold Italic"
       id="path3124"
       inkscape:connector-curvature="0" />
    <path
       d="m 232.76542,984.3048 c -3.92128,2.5855 -5.57234,3.5623 -6.29468,3.5623 -0.67075,0 -1.49628,-1.4939 -1.49628,-2.7005 0,-0.8044 0.87713,-5.2286 2.21862,-11.2617 0.72234,-0.057 1.2383,-0.057 1.49627,-0.057 l 2.06384,-0.058 c 0.20638,0 0.72234,-0.057 1.54787,-0.1723 l 1.96064,-1.6663 -6.60426,0 2.06383,-9.3081 c -0.98032,0.5745 -1.39309,0.7469 -2.16702,1.1491 -0.36117,0.2298 -0.77394,0.4022 -1.18671,0.632 -0.20638,0.115 -0.46436,0.2299 -0.72234,0.3448 l -1.44468,7.1822 c -0.46436,0.057 -0.77394,0.057 -0.92872,0.057 l -1.2383,0 c -0.10319,0 -0.36117,0 -0.77394,0.058 -0.56755,0.4022 -0.61915,0.4022 -1.49628,1.2066 -0.15478,0.1149 -0.41276,0.3448 -0.77393,0.632 l 1.2383,0 2.3734,0 1.13511,0 c -2.73458,12.7556 -2.73458,12.7556 -2.73458,14.5368 0,1.8387 1.08351,3.8497 2.06383,3.8497 1.13511,0 4.64362,-2.4133 9.59682,-6.5502 l 0.10319,-1.4364"
       style="font-size:64px;font-style:normal;font-variant:normal;font-weight:bold;font-stretch:normal;line-height:125%;letter-spacing:0px;word-spacing:0px;fill:#fcac45;fill-opacity:1;stroke:none;font-family:URW Chancery L;-inkscape-font-specification:URW Chancery L Bold Italic"
       id="path3126"
       inkscape:connector-curvature="0" />
    <path
       d="m 56.50086,1009.2781 c -1.03191,-0.1149 -1.54787,-0.1724 -2.27021,-0.1724 -0.98032,0 -1.85745,0.1149 -2.73458,0.3447 -1.39308,0.4022 -3.86968,2.3558 -5.93351,4.6541 -2.5282,2.8729 -3.40532,5.5159 -5.41756,16.203 -1.39309,7.3546 -2.73458,9.4805 -5.98511,9.4805 -0.41277,0 -1.03192,0 -1.59947,-0.057 -0.72234,0.8044 -1.03192,1.2066 -1.80585,2.2983 2.47659,-0.1149 3.76649,-0.1724 5.05639,-0.1724 1.34149,0 3.97287,0.1149 7.89415,0.2873 8.4617,0.4597 8.82288,0.4597 10.16437,0.4597 2.68297,0 3.81809,-0.6321 4.74681,-2.758 0.61915,-1.3215 2.21862,-5.2861 2.99256,-7.4695 l -0.56756,-1.0917 c -3.35372,7.8717 -3.92128,8.2165 -12.79575,8.159 l -9.7516,0 1.39308,-1.4939 c 2.73457,-2.8154 3.09575,-3.5624 4.38564,-9.538 1.49628,-7.1247 2.21862,-10.2849 2.88937,-12.5257 0.77393,-2.4132 2.11542,-3.5049 4.28245,-3.5049 0.67074,0 1.1351,0 3.04415,0.1149 l 2.01223,-3.2176"
       style="font-size:64px;font-style:normal;font-variant:normal;font-weight:bold;font-stretch:normal;line-height:125%;letter-spacing:0px;word-spacing:0px;fill:#fcac45;fill-opacity:1;stroke:none;font-family:URW Chancery L;-inkscape-font-specification:URW Chancery L Bold Italic"
       id="path3128"
       inkscape:connector-curvature="0" />
    <path
       d="m 84.36662,1034.7892 c -3.86969,2.8729 -4.64362,3.39 -5.15958,3.39 -0.36117,0 -0.61915,-0.4596 -0.61915,-1.1491 0,-1.4939 1.2383,-7.8143 3.09575,-15.4561 0.56755,-0.8619 0.67074,-1.0342 1.49628,-2.0685 -2.4766,-0.632 -4.28246,-0.8618 -6.50107,-0.8618 -2.11543,0 -3.09575,0.2298 -4.43724,1.1491 -1.85745,1.2066 -4.02447,2.9878 -4.69522,3.7922 -1.90904,2.4132 -4.07606,10.17 -4.07606,14.8241 0,2.7579 0.82553,4.5966 2.11542,4.5966 1.13511,0 2.83778,-1.1492 9.28724,-6.3204 -0.51595,2.6431 -0.77393,4.4243 -0.77393,5.1138 0,0.7469 0.30957,1.2066 0.82553,1.2066 0.61915,0 0.61915,0 4.74681,-2.9304 1.49628,-1.0917 2.68298,-2.011 4.64362,-3.6198 l 0.0516,-1.6663 m -10.06118,0.3448 c -3.04415,2.4707 -4.59202,3.4474 -5.52075,3.4474 -0.82553,0 -1.34149,-1.0342 -1.34149,-2.8728 0,-2.8729 0.82553,-6.78 2.11543,-10.0551 1.2383,-3.1602 2.3734,-4.3668 4.12766,-4.3668 0.92873,0 2.52819,0.2873 4.38564,0.747 -1.03191,4.3667 -1.39308,5.6883 -1.44468,5.9755 -0.30957,1.4365 -0.56755,2.8729 -0.87713,4.3668 -0.0516,0.2873 -0.20638,0.9768 -0.46436,2.011 l -0.98032,0.747"
       style="font-size:64px;font-style:normal;font-variant:normal;font-weight:bold;font-stretch:normal;line-height:125%;letter-spacing:0px;word-spacing:0px;fill:#fcac45;fill-opacity:1;stroke:none;font-family:URW Chancery L;-inkscape-font-specification:URW Chancery L Bold Italic"
       id="path3130"
       inkscape:connector-curvature="0" />
    <path
       d="m 122.90063,1040.713 c -4.74681,4.9752 -8.25533,7.0285 -11.86703,7.0285 -4.07607,0 -6.65586,-4.7383 -6.65586,-12.2407 0,-16.4263 7.58459,-32.7735 15.22076,-32.7735 3.09574,0 4.64362,2.922 4.9532,9.1608 l 3.81808,-4.9752 c -0.46436,-5.4492 -2.32181,-7.89724 -6.0367,-7.89724 -4.48884,0 -9.70002,4.02744 -14.24044,10.97714 -5.00479,7.6603 -7.94575,18.1635 -7.94575,28.4299 0,8.1341 2.94096,13.0304 7.89416,13.0304 4.43722,0 10.06117,-3.2378 14.49841,-8.371 l 0.36117,-2.3691"
       style="font-size:64px;font-style:normal;font-variant:normal;font-weight:bold;font-stretch:normal;line-height:125%;letter-spacing:0px;word-spacing:0px;fill:#fcac45;fill-opacity:1;stroke:none;font-family:URW Chancery L;-inkscape-font-specification:URW Chancery L Bold Italic"
       id="path3132"
       inkscape:connector-curvature="0" />
    <path
       d="m 144.22579,1034.7892 c -3.86968,2.8729 -4.64362,3.39 -5.15958,3.39 -0.36117,0 -0.61915,-0.4596 -0.61915,-1.1491 0,-1.4939 1.2383,-7.8143 3.09575,-15.4561 0.56755,-0.8619 0.67074,-1.0342 1.49628,-2.0685 -2.4766,-0.632 -4.28246,-0.8618 -6.50107,-0.8618 -2.11543,0 -3.09575,0.2298 -4.43724,1.1491 -1.85745,1.2066 -4.02447,2.9878 -4.69522,3.7922 -1.90904,2.4132 -4.07606,10.17 -4.07606,14.8241 0,2.7579 0.82553,4.5966 2.11542,4.5966 1.13511,0 2.83778,-1.1492 9.28725,-6.3204 -0.51596,2.6431 -0.77394,4.4243 -0.77394,5.1138 0,0.7469 0.30957,1.2066 0.82553,1.2066 0.61915,0 0.61915,0 4.74681,-2.9304 1.49628,-1.0917 2.68298,-2.011 4.64362,-3.6198 l 0.0516,-1.6663 m -10.06118,0.3448 c -3.04415,2.4707 -4.59202,3.4474 -5.52075,3.4474 -0.82553,0 -1.34149,-1.0342 -1.34149,-2.8728 0,-2.8729 0.82553,-6.78 2.11543,-10.0551 1.2383,-3.1602 2.37341,-4.3668 4.12766,-4.3668 0.92873,0 2.5282,0.2873 4.38564,0.747 -1.03191,4.3667 -1.39308,5.6883 -1.44468,5.9755 -0.30957,1.4365 -0.56755,2.8729 -0.87713,4.3668 -0.0516,0.2873 -0.20638,0.9768 -0.46436,2.011 l -0.98032,0.747"
       style="font-size:64px;font-style:normal;font-variant:normal;font-weight:bold;font-stretch:normal;line-height:125%;letter-spacing:0px;word-spacing:0px;fill:#fcac45;fill-opacity:1;stroke:none;font-family:URW Chancery L;-inkscape-font-specification:URW Chancery L Bold Italic"
       id="path3134"
       inkscape:connector-curvature="0" />
    <path
       d="m 142.72548,1037.4897 c -0.0516,0.5172 -0.10319,0.9768 -0.10319,1.3216 0,2.4706 1.54787,4.1944 3.81809,4.1944 1.59947,0 3.81809,-0.747 5.46915,-1.7812 3.04414,-1.9536 4.9016,-4.8839 4.9016,-7.7568 0,-2.1259 -0.36118,-2.5856 -3.25053,-4.5966 -1.75426,-1.2641 -2.4766,-2.3558 -2.4766,-3.8497 0,-1.9535 1.49628,-3.6772 3.25053,-3.6772 1.18671,0 2.06383,0.632 3.19894,2.2408 1.75426,-1.8961 1.75426,-1.8961 2.425,-2.9878 -1.03191,-1.379 -2.01223,-1.9535 -3.45692,-1.9535 -3.76649,0 -8.61649,4.9988 -8.61649,8.791 0,1.7811 0.82553,3.1601 2.78617,4.7115 2.57978,2.011 2.94096,2.5281 2.94096,3.9646 0,2.0684 -2.37341,4.4816 -4.38564,4.4816 -1.13511,0 -2.01224,-0.6894 -2.52819,-1.9535 -0.36117,-0.8619 -0.46437,-1.7237 -0.51596,-3.6773 -0.56756,0.4597 -0.98032,0.747 -1.1867,0.9193 -0.41277,0.2873 -0.87713,0.5746 -1.3415,0.9193 l -0.92872,0.6895"
       style="font-size:64px;font-style:normal;font-variant:normal;font-weight:bold;font-stretch:normal;line-height:125%;letter-spacing:0px;word-spacing:0px;fill:#fcac45;fill-opacity:1;stroke:none;font-family:URW Chancery L;-inkscape-font-specification:URW Chancery L Bold Italic"
       id="path3136"
       inkscape:connector-curvature="0" />
    <path
       d="m 169.51982,1013.8747 c 1.49627,-1.4939 1.59947,-1.6088 3.35372,-3.1027 -0.30957,-0.6895 -0.56755,-1.1492 -0.67074,-1.3216 -0.30958,-0.6894 -0.36117,-0.7469 -0.77394,-1.8386 -0.10319,-0.2298 -0.20638,-0.4597 -0.30957,-0.7469 -0.25798,0.2298 -0.56756,0.4596 -0.72235,0.632 -0.20638,0.2298 -0.61915,0.5746 -1.1351,1.0342 -0.25798,0.2299 -0.61915,0.5171 -1.08351,0.8619 -0.20639,0.1724 -0.41277,0.3447 -0.61915,0.4596 0.36117,1.2641 0.82553,2.1834 1.96064,4.0221 m 3.56011,21.7189 c -4.9016,2.9304 -5.0048,2.9878 -5.67554,2.9878 -0.56755,0 -0.92873,-0.632 -0.92873,-1.6088 0,-0.5746 0.15479,-1.6662 0.46437,-2.9303 2.63137,-12.0661 3.14734,-14.3644 3.14734,-14.8241 0,-0.3447 -0.25798,-0.5745 -0.61915,-0.5745 -0.87713,0 -3.92129,1.8961 -8.15213,5.0562 l -0.1032,1.6088 c 3.04415,-1.8386 3.30214,-1.9535 3.7665,-1.9535 0.41276,0 0.61915,0.3447 0.61915,1.0342 0,0.747 -0.15479,1.5514 -0.92873,4.8264 -2.425,10.0551 -2.425,10.0551 -2.425,11.4916 0,1.3789 0.51596,2.2983 1.2383,2.2983 0.87713,0 2.27021,-0.747 5.00479,-2.7005 0.98032,-0.6895 1.96064,-1.379 2.94096,-2.126 0.46436,-0.2873 0.92872,-0.632 1.44468,-0.9767 l 0.20639,-1.6089"
       style="font-size:64px;font-style:normal;font-variant:normal;font-weight:bold;font-stretch:normal;line-height:125%;letter-spacing:0px;word-spacing:0px;fill:#fcac45;fill-opacity:1;stroke:none;font-family:URW Chancery L;-inkscape-font-specification:URW Chancery L Bold Italic"
       id="path3138"
       inkscape:connector-curvature="0" />
    <path
       d="m 188.15799,1035.0191 c -3.92128,2.5855 -5.57235,3.5623 -6.29469,3.5623 -0.67074,0 -1.49628,-1.4939 -1.49628,-2.7005 0,-0.8044 0.87713,-5.2286 2.21862,-11.2617 0.72234,-0.057 1.2383,-0.057 1.49628,-0.057 l 2.06383,-0.058 c 0.20638,0 0.72234,-0.057 1.54787,-0.1723 l 1.96064,-1.6663 -6.60426,0 2.06384,-9.3081 c -0.98032,0.5745 -1.39309,0.7469 -2.16703,1.1491 -0.36117,0.2298 -0.77393,0.4022 -1.1867,0.632 -0.20638,0.115 -0.46436,0.2299 -0.72234,0.3448 l -1.44468,7.1822 c -0.46437,0.057 -0.77394,0.057 -0.92873,0.057 l -1.2383,0 c -0.10319,0 -0.36117,0 -0.77393,0.058 -0.56756,0.4022 -0.61915,0.4022 -1.49628,1.2066 -0.15479,0.1149 -0.41277,0.3448 -0.77394,0.632 l 1.2383,0 2.37341,0 1.1351,0 c -2.73457,12.7556 -2.73457,12.7556 -2.73457,14.5368 0,1.8387 1.08351,3.8497 2.06383,3.8497 1.13511,0 4.64362,-2.4133 9.59682,-6.5502 l 0.10319,-1.4364"
       style="font-size:64px;font-style:normal;font-variant:normal;font-weight:bold;font-stretch:normal;line-height:125%;letter-spacing:0px;word-spacing:0px;fill:#fcac45;fill-opacity:1;stroke:none;font-family:URW Chancery L;-inkscape-font-specification:URW Chancery L Bold Italic"
       id="path3140"
       inkscape:connector-curvature="0" />
    <path
       d="m 211.34062,1034.7892 c -3.86969,2.8729 -4.64362,3.39 -5.15958,3.39 -0.36117,0 -0.61915,-0.4596 -0.61915,-1.1491 0,-1.4939 1.2383,-7.8143 3.09575,-15.4561 0.56755,-0.8619 0.67074,-1.0342 1.49627,-2.0685 -2.47659,-0.632 -4.28245,-0.8618 -6.50106,-0.8618 -2.11543,0 -3.09575,0.2298 -4.43724,1.1491 -1.85745,1.2066 -4.02447,2.9878 -4.69522,3.7922 -1.90904,2.4132 -4.07607,10.17 -4.07607,14.8241 0,2.7579 0.82554,4.5966 2.11543,4.5966 1.13511,0 2.83778,-1.1492 9.28724,-6.3204 -0.51595,2.6431 -0.77393,4.4243 -0.77393,5.1138 0,0.7469 0.30957,1.2066 0.82553,1.2066 0.61915,0 0.61915,0 4.74681,-2.9304 1.49628,-1.0917 2.68298,-2.011 4.64362,-3.6198 l 0.0516,-1.6663 m -10.06118,0.3448 c -3.04415,2.4707 -4.59203,3.4474 -5.52075,3.4474 -0.82553,0 -1.34149,-1.0342 -1.34149,-2.8728 0,-2.8729 0.82553,-6.78 2.11543,-10.0551 1.2383,-3.1602 2.3734,-4.3668 4.12766,-4.3668 0.92872,0 2.52819,0.2873 4.38564,0.747 -1.03191,4.3667 -1.39308,5.6883 -1.44468,5.9755 -0.30957,1.4365 -0.56755,2.8729 -0.87713,4.3668 -0.0516,0.2873 -0.20638,0.9768 -0.46436,2.011 l -0.98032,0.747"
       style="font-size:64px;font-style:normal;font-variant:normal;font-weight:bold;font-stretch:normal;line-height:125%;letter-spacing:0px;word-spacing:0px;fill:#fcac45;fill-opacity:1;stroke:none;font-family:URW Chancery L;-inkscape-font-specification:URW Chancery L Bold Italic"
       id="path3142"
       inkscape:connector-curvature="0" />
  </g>
</svg>
