<?xml version="1.0" encoding="UTF-8" standalone="no"?>
<!-- Created with Inkscape (http://www.inkscape.org/) -->

<svg
   xmlns:dc="http://purl.org/dc/elements/1.1/"
   xmlns:cc="http://creativecommons.org/ns#"
   xmlns:rdf="http://www.w3.org/1999/02/22-rdf-syntax-ns#"
   xmlns:svg="http://www.w3.org/2000/svg"
   xmlns="http://www.w3.org/2000/svg"
   xmlns:sodipodi="http://sodipodi.sourceforge.net/DTD/sodipodi-0.dtd"
   xmlns:inkscape="http://www.inkscape.org/namespaces/inkscape"
   width="577"
   height="564"
   id="svg3855"
   version="1.1"
   inkscape:version="0.48.5 r10040"
   sodipodi:docname="Nouveau document 14">
  <defs
     id="defs3857" />
  <sodipodi:namedview
     id="base"
     pagecolor="#ffffff"
     bordercolor="#666666"
     borderopacity="1.0"
     inkscape:pageopacity="0.0"
     inkscape:pageshadow="2"
     inkscape:zoom="0.35"
     inkscape:cx="375"
     inkscape:cy="520"
     inkscape:document-units="px"
     inkscape:current-layer="layer1"
     showgrid="false"
     inkscape:window-width="1054"
     inkscape:window-height="1060"
     inkscape:window-x="1600"
     inkscape:window-y="18"
     inkscape:window-maximized="0" />
  <metadata
     id="metadata3860">
    <rdf:RDF>
      <cc:Work
         rdf:about="">
        <dc:format>image/svg+xml</dc:format>
        <dc:type
           rdf:resource="http://purl.org/dc/dcmitype/StillImage" />
        <dc:title></dc:title>
      </cc:Work>
    </rdf:RDF>
  </metadata>
  <g
     inkscape:label="Calque 1"
     inkscape:groupmode="layer"
     id="layer1"
     transform="translate(0,-488.36218)">
    <path
       d="m 577.73754,1052.3622 -577.73754,0 0,-561.82382 577.73754,0 0,561.82382 z"
       style="fill:#231f20;fill-opacity:1;fill-rule:nonzero;stroke:none"
       id="path3627"
       inkscape:connector-curvature="0" />
    <g
       id="g3629"
       transform="matrix(1.25,0,0,-1.25,311.98535,922.52918)">
      <path
         d="m 0,0 -25.057,-14.471 -121.429,70.086 -0.02,140.207 31.81,18.371 89.604,51.749 L 96.337,195.855 96.354,55.648 0,0 z m 124.954,214.583 -151.657,86.336 -150.601,-88.173 1.061,-174.51 151.657,-86.333 150.601,88.172 -1.061,174.508 z"
         style="fill:#ffffff;fill-opacity:1;fill-rule:nonzero;stroke:none"
         id="path3631"
         inkscape:connector-curvature="0" />
    </g>
    <g
       id="g3633"
       transform="matrix(1.25,0,0,-1.25,311.98535,922.52918)">
      <path
         d="m 0,0 -25.057,-14.471 -121.429,70.086 -0.02,140.207 31.81,18.371 89.604,51.749 L 96.337,195.855 96.354,55.648 0,0 z m 124.954,214.583 -151.657,86.336 -150.601,-88.173 1.061,-174.51 151.657,-86.333 150.601,88.172 -1.061,174.508 z"
         style="fill:none;stroke:#231f20;stroke-width:2.07399988;stroke-linecap:butt;stroke-linejoin:miter;stroke-miterlimit:10;stroke-opacity:1;stroke-dasharray:none"
         id="path3635"
         inkscape:connector-curvature="0" />
    </g>
    <g
       id="g3637"
       transform="matrix(1.25,0,0,-1.25,167.96805,701.17608)">
      <path
         d="m 0,0 -1.151,-0.675 0.638,-105.083 86.929,-49.486 -0.26,105.817 L 0,0 z"
         style="fill:#ffffff;fill-opacity:1;fill-rule:nonzero;stroke:none"
         id="path3639"
         inkscape:connector-curvature="0" />
    </g>
    <g
       id="g3641"
       transform="matrix(1.25,0,0,-1.25,167.96805,701.17608)">
      <path
         d="m 0,0 -1.151,-0.675 0.638,-105.083 86.929,-49.486 -0.26,105.817 L 0,0 z"
         style="fill:none;stroke:#231f20;stroke-width:2.07399988;stroke-linecap:butt;stroke-linejoin:miter;stroke-miterlimit:10;stroke-opacity:1;stroke-dasharray:none"
         id="path3643"
         inkscape:connector-curvature="0" />
    </g>
    <g
       id="g3645"
       transform="matrix(1.25,0,0,-1.25,279.88705,635.65288)">
      <path
         d="m 0,0 -30.307,-17.743 87.954,-50.622 -0.327,-0.18 0.295,0.148 0.22,-108.65 34.125,19.979 L 91.321,-51.986 0,0 z"
         style="fill:#ffffff;fill-opacity:1;fill-rule:nonzero;stroke:none"
         id="path3647"
         inkscape:connector-curvature="0" />
    </g>
    <g
       id="g3649"
       transform="matrix(1.25,0,0,-1.25,279.88705,635.65288)">
      <path
         d="m 0,0 -30.307,-17.743 87.954,-50.622 -0.327,-0.18 0.295,0.148 0.22,-108.65 34.125,19.979 L 91.321,-51.986 0,0 z"
         style="fill:none;stroke:#231f20;stroke-width:2.07399988;stroke-linecap:butt;stroke-linejoin:miter;stroke-miterlimit:10;stroke-opacity:1;stroke-dasharray:none"
         id="path3651"
         inkscape:connector-curvature="0" />
    </g>
  </g>
</svg>
